<svg width="220" height="17" viewBox="0 0 220 17" fill="none" xmlns="http://www.w3.org/2000/svg">
<path d="M7.89019 16.7296H0V0.274902H7.33827C10.8595 0.274902 13.182 1.91843 13.182 4.69079C13.1764 5.45963 12.9311 6.20845 12.479 6.83691C12.0268 7.46537 11.3893 7.94343 10.652 8.20705C11.593 8.35036 12.4516 8.81609 13.075 9.52136C13.6984 10.2266 14.0461 11.1257 14.0562 12.0585C14.0562 15.0168 11.6565 16.7296 7.89019 16.7296ZM6.09757 3.9512H5.25424V7.01983H6.1064C7.62306 7.01983 8.40458 6.49865 8.40458 5.41523C8.40458 4.3318 7.56787 3.9512 6.09757 3.9512ZM6.94752 9.99114H5.25424V13.0576H6.95635C8.52158 13.0576 9.09557 12.4716 9.09557 11.4595C9.09557 10.4474 8.32731 9.99114 6.94752 9.99114Z" fill="white"/>
<path d="M29.6309 16.7296L28.7346 13.7323H23.8115L22.9174 16.7296H17.5527L23.3743 0.274902H29.4476L35.2803 16.7296H29.6309ZM26.273 5.59472L25.008 9.76624H27.538L26.273 5.59472Z" fill="white"/>
<path d="M47.2652 16.9999C42.6159 16.9999 39.1212 14.6579 39.1212 9.15856V0.274902H44.733V9.72515C44.733 11.5006 45.7022 12.6294 47.2652 12.6294C48.8283 12.6294 49.7952 11.5006 49.7952 9.72515V0.274902H55.4093V9.15424C55.4093 14.6579 51.9102 16.9999 47.2652 16.9999Z" fill="white"/>
<path d="M66.9236 17C64.1861 17 61.8172 16.0312 60.252 14.7012L62.484 11.2088C64.047 12.4263 65.4047 12.9928 66.8551 12.9928C67.6609 12.9928 68.2349 12.6512 68.2349 12.0867C68.2349 11.2996 67.5925 11.0055 65.5438 10.3978C62.484 9.47442 60.9408 8.18988 60.9408 5.48455C60.9408 1.92287 63.7953 0.0090332 67.8663 0.0090332C70.0518 0.0090332 72.1911 0.796198 73.3192 1.67635L71.1115 5.25965C69.9613 4.4487 68.9039 4.02053 67.6609 4.02053C66.6013 4.02053 66.2105 4.47033 66.2105 4.94392C66.2105 5.46077 66.6013 5.77866 68.8111 6.40795C71.8467 7.27296 73.5024 8.41262 73.5024 11.5007C73.5024 14.7942 70.9724 17 66.9236 17Z" fill="white"/>
<path d="M86.9423 16.9996C81.836 16.9996 78.1779 13.4855 78.1779 8.56576C78.1779 3.64602 81.975 0 87.035 0C89.7261 0 91.521 1.12668 92.9714 2.34418L90.2096 6.02047C89.2669 5.1187 88.3684 4.48724 86.9202 4.48724C85.0569 4.48724 83.6749 6.06805 83.6749 8.43385C83.6749 10.7997 84.9995 12.5102 87.2425 12.5102C88.4854 12.5102 89.6356 11.9696 90.6224 11.07L93.318 14.6533C91.7086 16.0308 89.8917 16.9996 86.9423 16.9996Z" fill="white"/>
<path d="M108.489 16.7296V10.9837H104.257V16.7296H98.6388V0.274902H104.251V6.32998H108.483V0.274902H114.099V16.7253L108.489 16.7296Z" fill="white"/>
<path d="M145.729 16.7296V0.274902H151.115V12.5343H156.613V16.7253L145.729 16.7296Z" fill="white"/>
<path d="M168.728 17C163.456 17 159.705 13.4383 159.705 8.52723C159.705 3.61613 163.503 0.0090332 168.774 0.0090332C174.046 0.0090332 177.791 3.57072 177.791 8.48182C177.791 13.3929 173.993 17 168.728 17ZM168.728 4.37951C166.679 4.37951 165.196 6.10953 165.196 8.48831C165.196 10.8671 166.715 12.636 168.763 12.636C170.812 12.636 172.28 10.906 172.28 8.52723C172.28 6.14845 170.772 4.38383 168.728 4.38383V4.37951Z" fill="white"/>
<path d="M195.017 16.7296V8.70876L192.416 13.4858H189.862L187.193 8.70876V16.7296H181.895V0.274902H187.345L191.167 6.83601L194.699 0.274902H200.631V16.7253L195.017 16.7296Z" fill="white"/>
<path d="M213.834 16.7296H205.942V0.274902H213.282C216.814 0.274902 219.13 1.91843 219.13 4.69079C219.124 5.45989 218.879 6.20889 218.426 6.83738C217.974 7.46587 217.336 7.94379 216.598 8.20705C217.539 8.35041 218.397 8.81623 219.02 9.52154C219.643 10.2269 219.99 11.1259 220 12.0585C220 15.0168 217.609 16.7296 213.834 16.7296ZM212.041 3.9512H211.189V7.01983H212.041C213.56 7.01983 214.344 6.49865 214.344 5.41523C214.344 4.3318 213.514 3.9512 212.041 3.9512ZM212.894 9.99114H211.189V13.0576H212.894C214.459 13.0576 215.033 12.4716 215.033 11.4595C215.033 10.4474 214.273 9.99114 212.894 9.99114Z" fill="white"/>
<path d="M132.628 5.83472H127.201V11.1762H132.628V5.83472Z" fill="white"/>
<path d="M132.63 0.279297H127.203V5.83699H132.63V0.279297Z" fill="white"/>
<path d="M132.63 11.1758H127.203V16.7313H132.63V11.1758Z" fill="white"/>
<path d="M127.2 5.83472H121.502V11.1762H127.2V5.83472Z" fill="white"/>
<path d="M138.303 5.83472H132.631V11.1762H138.303V5.83472Z" fill="white"/>
</svg>
