<svg width="400" height="31" viewBox="0 0 400 31" fill="none" xmlns="http://www.w3.org/2000/svg">
<path d="M14.3458 30.507H0V0.501221H13.3423C19.7445 0.501221 23.9672 3.49826 23.9672 8.55378C23.9571 9.9558 23.5111 11.3213 22.689 12.4673C21.8668 13.6133 20.7078 14.4851 19.3672 14.9658C21.0782 15.2272 22.6393 16.0765 23.7727 17.3626C24.9061 18.6486 25.5383 20.2881 25.5567 21.9892C25.5567 27.3838 21.1935 30.507 14.3458 30.507ZM11.0865 7.20511H9.55315V12.8009H11.1025C13.8601 12.8009 15.281 11.8505 15.281 9.87483C15.281 7.89916 13.7598 7.20511 11.0865 7.20511ZM12.6318 18.2192H9.55315V23.811H12.6479C15.4938 23.811 16.5374 22.7424 16.5374 20.8968C16.5374 19.0513 15.1405 18.2192 12.6318 18.2192Z" fill="#009AB2"/>
<path d="M53.8711 30.507L52.2414 25.0414H43.2904L41.6647 30.507H31.9109L42.4956 0.501221H53.5379L64.1427 30.507H53.8711ZM47.7659 10.2021L45.4659 17.8091H50.0659L47.7659 10.2021Z" fill="#009AB2"/>
<path d="M85.9342 31C77.4809 31 71.1268 26.7292 71.1268 16.701V0.501221H81.3302V17.7342C81.3302 20.9717 83.0924 23.0302 85.9342 23.0302C88.7761 23.0302 90.5342 20.9717 90.5342 17.7342V0.501221H100.742V16.6931C100.742 26.7292 94.3795 31 85.9342 31Z" fill="#009AB2"/>
<path d="M121.675 30.9999C116.697 30.9999 112.39 29.2332 109.545 26.808L113.603 20.4393C116.445 22.6595 118.913 23.6927 121.55 23.6927C123.015 23.6927 124.059 23.0696 124.059 22.0404C124.059 20.6049 122.891 20.0686 119.166 18.9605C113.603 17.2767 110.797 14.9342 110.797 10.001C110.797 3.50608 115.987 0.0161133 123.389 0.0161133C127.362 0.0161133 131.252 1.45154 133.303 3.05653L129.289 9.59084C127.198 8.11204 125.275 7.33124 123.015 7.33124C121.089 7.33124 120.378 8.15148 120.378 9.0151C120.378 9.95759 121.089 10.5373 125.107 11.6848C130.626 13.2622 133.636 15.3404 133.636 20.9717C133.636 26.9776 129.036 30.9999 121.675 30.9999Z" fill="#009AB2"/>
<path d="M158.069 30.9996C148.784 30.9996 142.133 24.5914 142.133 15.6201C142.133 6.64867 149.037 0 158.237 0C163.13 0 166.393 2.05454 169.031 4.27471L164.009 10.9786C162.295 9.33418 160.662 8.18269 158.028 8.18269C154.641 8.18269 152.128 11.0654 152.128 15.3795C152.128 19.6937 154.536 22.8129 158.614 22.8129C160.874 22.8129 162.966 21.8271 164.76 20.1866L169.661 26.7209C166.735 29.2329 163.431 30.9996 158.069 30.9996Z" fill="#009AB2"/>
<path d="M197.253 30.507V20.0293H189.558V30.507H179.343V0.501221H189.546V11.5429H197.241V0.501221H207.452V30.4992L197.253 30.507Z" fill="#009AB2"/>
<path d="M264.964 30.507V0.501221H274.758V22.8567H284.753V30.4992L264.964 30.507Z" fill="#009AB2"/>
<path d="M306.78 30.9999C297.195 30.9999 290.375 24.505 290.375 15.5494C290.375 6.59382 297.279 0.0161133 306.864 0.0161133C316.45 0.0161133 323.257 6.51101 323.257 15.4666C323.257 24.4222 316.353 30.9999 306.78 30.9999ZM306.78 7.98586C303.055 7.98586 300.358 11.1406 300.358 15.4784C300.358 19.8162 303.119 23.042 306.844 23.042C310.569 23.042 313.239 19.8872 313.239 15.5494C313.239 11.2116 310.497 7.99374 306.78 7.99374V7.98586Z" fill="#009AB2"/>
<path d="M354.578 30.507V15.8807L349.85 24.5918H345.206L340.353 15.8807V30.507H330.72V0.501221H340.63L347.578 12.4657L354 0.501221H364.786V30.4992L354.578 30.507Z" fill="#009AB2"/>
<path d="M388.789 30.507H374.44V0.501221H387.786C394.208 0.501221 398.419 3.49826 398.419 8.55378C398.408 9.95627 397.962 11.3221 397.139 12.4682C396.316 13.6143 395.156 14.4858 393.815 14.9658C395.525 15.2273 397.086 16.0767 398.219 17.3629C399.351 18.649 399.983 20.2885 400 21.9892C400 27.3838 395.653 30.507 388.789 30.507ZM385.53 7.20511H383.981V12.8009H385.53C388.292 12.8009 389.716 11.8505 389.716 9.87483C389.716 7.89916 388.207 7.20511 385.53 7.20511ZM387.079 18.2192H383.981V23.811H387.079C389.925 23.811 390.969 22.7424 390.969 20.8968C390.969 19.0513 389.588 18.2192 387.079 18.2192Z" fill="#009AB2"/>
<path d="M241.14 10.6399H231.274V20.3802H241.14V10.6399Z" fill="#009AB2"/>
<path d="M241.144 0.509277H231.278V10.644H241.144V0.509277Z" fill="#79C3A9"/>
<path d="M241.144 20.3796H231.278V30.5104H241.144V20.3796Z" fill="#79C3A9"/>
<path d="M231.275 10.6399H220.915V20.3802H231.275V10.6399Z" fill="#5DC5EC"/>
<path d="M251.456 10.6399H241.145V20.3802H251.456V10.6399Z" fill="#5DC5EC"/>
</svg>
